<svg width="32" height="32" viewBox="0 0 32 32" fill="none" xmlns="http://www.w3.org/2000/svg">
<g clip-path="url(#clip0_30_227)">
<path d="M25.3328 9.33331H24.2395L21.9728 3.09331C21.7852 2.57878 21.4443 2.13418 20.996 1.81947C20.5478 1.50476 20.0139 1.33508 19.4662 1.33331H17.3328C16.5995 1.33331 15.9995 1.93331 15.9995 2.66665C15.9995 3.39998 16.5995 3.99998 17.3328 3.99998H19.4662L21.4128 9.33331H14.9995L14.5195 7.99998H14.6395C15.3728 7.99998 15.9728 7.39998 15.9728 6.66665C15.9728 5.93331 15.3728 5.33331 14.6395 5.33331H10.6662C9.93284 5.33331 9.33284 5.93331 9.33284 6.66665C9.33284 7.39998 9.93284 7.99998 10.6662 7.99998H11.6662L14.0928 14.6666H13.1995C12.6128 11.6933 10.1195 9.49331 6.99951 9.34665C3.26618 9.15998 -0.000488281 12.2666 -0.000488281 16C-0.000488281 19.7333 2.93284 22.6666 6.66618 22.6666C9.94618 22.6666 12.5995 20.4133 13.1995 17.3333H18.7995C19.3862 20.3066 21.8795 22.5066 24.9995 22.6533C28.7328 22.8266 31.9995 19.7333 31.9995 15.9866C31.9995 12.2666 29.0662 9.33331 25.3328 9.33331ZM7.99951 17.3333H10.4262C9.86618 18.9733 8.29284 20.1066 6.39951 19.9866C4.41285 19.8666 2.75951 18.1866 2.66618 16.1866C2.57284 13.8533 4.35951 12 6.66618 12C8.43951 12 9.89285 13.1066 10.4262 14.6666H7.99951C7.26618 14.6666 6.66618 15.2666 6.66618 16C6.66618 16.7333 7.26618 17.3333 7.99951 17.3333ZM18.7995 14.6666H16.9328L15.9595 12H19.9995C19.4128 12.7733 18.9862 13.6666 18.7995 14.6666ZM25.1728 20C23.1195 19.92 21.3862 18.1733 21.3328 16.1066C21.3062 14.8266 21.8528 13.7066 22.7328 12.96L23.5595 15.2266C23.8128 15.92 24.5728 16.28 25.2662 16.0266C25.9595 15.7733 26.3195 15.0133 26.0662 14.32L25.2262 12.0133L25.2395 12C25.7741 11.9818 26.3068 12.072 26.8055 12.2654C27.3042 12.4588 27.7586 12.7512 28.1412 13.1251C28.5237 13.4989 28.8265 13.9464 29.0314 14.4405C29.2362 14.9346 29.3387 15.4651 29.3328 16C29.3328 18.2933 27.4928 20.08 25.1728 20ZM14.6662 26.6666H9.33284L17.3328 30.6666V28H22.6662L14.6662 24V26.6666Z" fill="url(#paint0_linear_30_227)"/>
</g>
<defs>
<linearGradient id="paint0_linear_30_227" x1="15.9995" y1="1.33331" x2="15.9995" y2="30.6666" gradientUnits="userSpaceOnUse">
<stop stop-color="#FFBB00"/>
<stop offset="0.0001" stop-color="#FFBF00"/>
<stop offset="1" stop-color="#F2A60C"/>
</linearGradient>
<clipPath id="clip0_30_227">
<rect width="32" height="32" fill="white"/>
</clipPath>
</defs>
</svg>
