<svg width="17" height="10" viewBox="0 0 17 10" fill="none" xmlns="http://www.w3.org/2000/svg">
<path fill-rule="evenodd" clip-rule="evenodd" d="M9.01154 0.976565C9.30061 0.505968 9.91643 0.358805 10.387 0.647867L16.5234 4.4171C16.8296 4.60519 17.0113 4.94312 16.9995 5.30229C16.9876 5.66146 16.7839 5.98662 16.4659 6.15404L10.3295 9.38481C9.84082 9.6421 9.23608 9.45452 8.97878 8.96583C8.72149 8.47714 8.90907 7.8724 9.39777 7.61511L11.9541 6.26919H1C0.447715 6.26919 0 5.82147 0 5.26919C0 4.7169 0.447715 4.26919 1 4.26919H12.4614L9.34024 2.35205C8.86965 2.06299 8.72248 1.44716 9.01154 0.976565Z" fill="#332200"/>
</svg>
