<svg width="32" height="33" viewBox="0 0 32 33" fill="none" xmlns="http://www.w3.org/2000/svg">
<g clip-path="url(#clip0_12_346)">
<path d="M32 16.5977C32 7.76166 24.836 0.597656 16 0.597656C7.164 0.597656 0 7.76166 0 16.5977C0 24.5843 5.85067 31.203 13.5 32.403V21.223H9.43733V16.5963H13.5V13.0737C13.5 9.06432 15.8893 6.84832 19.544 6.84832C21.2933 6.84832 23.1253 7.16166 23.1253 7.16166V11.099H21.1067C19.1187 11.099 18.4987 12.3323 18.4987 13.5977V16.5977H22.936L22.2267 21.2243H18.4987V32.4043C26.1493 31.203 32 24.583 32 16.5977Z" fill="white"/>
</g>
<defs>
<clipPath id="clip0_12_346">
<rect width="32" height="32" fill="white" transform="translate(0 0.5)"/>
</clipPath>
</defs>
</svg>
