<svg width="32" height="33" viewBox="0 0 32 33" fill="none" xmlns="http://www.w3.org/2000/svg">
<g clip-path="url(#clip0_12_348)">
<path d="M16 0.5C11.6533 0.5 11.1107 0.52 9.404 0.596C7.7 0.676 6.54 0.944 5.52 1.34C4.468 1.748 3.57467 2.296 2.68533 3.18533C1.796 4.07467 1.24667 4.96667 0.84 6.02C0.444 7.04 0.174667 8.2 0.096 9.904C0.016 11.6107 0 12.1533 0 16.5C0 20.8467 0.02 21.3893 0.096 23.096C0.176 24.7987 0.444 25.96 0.84 26.98C1.248 28.0307 1.796 28.9253 2.68533 29.8147C3.57467 30.7027 4.46667 31.2533 5.52 31.66C6.54133 32.0547 7.70133 32.3253 9.404 32.404C11.1107 32.484 11.6533 32.5 16 32.5C20.3467 32.5 20.8893 32.48 22.596 32.404C24.2987 32.324 25.46 32.0547 26.48 31.66C27.5307 31.252 28.4253 30.7027 29.3147 29.8147C30.2027 28.9253 30.7533 28.0347 31.16 26.98C31.5547 25.96 31.8253 24.7987 31.904 23.096C31.984 21.3893 32 20.8467 32 16.5C32 12.1533 31.98 11.6107 31.904 9.904C31.824 8.20133 31.5547 7.03867 31.16 6.02C30.752 4.968 30.2027 4.07467 29.3147 3.18533C28.4253 2.296 27.5347 1.74667 26.48 1.34C25.46 0.944 24.2987 0.674667 22.596 0.596C20.8893 0.516 20.3467 0.5 16 0.5ZM16 3.38C20.2707 3.38 20.78 3.40133 22.4667 3.47467C24.0267 3.548 24.8733 3.80667 25.436 4.028C26.1853 4.31733 26.716 4.664 27.2787 5.22267C27.8373 5.78267 28.184 6.31467 28.4733 7.064C28.692 7.62667 28.9533 8.47333 29.024 10.0333C29.1 11.7213 29.1173 12.228 29.1173 16.5C29.1173 20.772 29.0973 21.28 29.0187 22.9667C28.9373 24.5267 28.6773 25.3733 28.4573 25.936C28.1587 26.6853 27.8187 27.216 27.2587 27.7787C26.7 28.3373 26.16 28.684 25.4187 28.9733C24.8587 29.192 23.9987 29.4533 22.4387 29.524C20.74 29.6 20.24 29.6173 15.96 29.6173C11.6787 29.6173 11.1787 29.5973 9.48133 29.5187C7.92 29.4373 7.06 29.1773 6.5 28.9573C5.74133 28.6587 5.22 28.3187 4.66133 27.7587C4.1 27.2 3.74133 26.66 3.46133 25.9187C3.24133 25.3587 2.98267 24.4987 2.90133 22.9387C2.84133 21.2587 2.82 20.74 2.82 16.48C2.82 12.2187 2.84133 11.6987 2.90133 9.99867C2.98267 8.43867 3.24133 7.58 3.46133 7.02C3.74133 6.26 4.1 5.74 4.66133 5.17867C5.22 4.62 5.74133 4.26 6.5 3.98133C7.06 3.76 7.90133 3.5 9.46133 3.42C11.1613 3.36 11.6613 3.34 15.94 3.34L16 3.38ZM16 8.284C11.46 8.284 7.784 11.964 7.784 16.5C7.784 21.04 11.464 24.716 16 24.716C20.54 24.716 24.216 21.036 24.216 16.5C24.216 11.96 20.536 8.284 16 8.284ZM16 21.8333C13.0533 21.8333 10.6667 19.4467 10.6667 16.5C10.6667 13.5533 13.0533 11.1667 16 11.1667C18.9467 11.1667 21.3333 13.5533 21.3333 16.5C21.3333 19.4467 18.9467 21.8333 16 21.8333ZM26.4613 7.96C26.4613 9.02 25.6 9.88 24.5413 9.88C23.4813 9.88 22.6213 9.01867 22.6213 7.96C22.6213 6.90133 23.4827 6.04133 24.5413 6.04133C25.5987 6.04 26.4613 6.90133 26.4613 7.96Z" fill="white"/>
</g>
<defs>
<clipPath id="clip0_12_348">
<rect width="32" height="32" fill="white" transform="translate(0 0.5)"/>
</clipPath>
</defs>
</svg>
