<svg width="32" height="32" viewBox="0 0 32 32" fill="none" xmlns="http://www.w3.org/2000/svg">
<path d="M16.5 0C12.2891 0 11.7635 0.02 10.1101 0.096C8.45938 0.176 7.33562 0.444 6.3475 0.84C5.32837 1.248 4.46296 1.796 3.60141 2.68533C2.73987 3.57467 2.20771 4.46667 1.81375 5.52C1.43012 6.54 1.16921 7.7 1.093 9.404C1.0155 11.1107 1 11.6533 1 16C1 20.3467 1.01938 20.8893 1.093 22.596C1.1705 24.2987 1.43012 25.46 1.81375 26.48C2.209 27.5307 2.73987 28.4253 3.60141 29.3147C4.46296 30.2027 5.32709 30.7533 6.3475 31.16C7.33691 31.5547 8.46066 31.8253 10.1101 31.904C11.7635 31.984 12.2891 32 16.5 32C20.7109 32 21.2365 31.98 22.8899 31.904C24.5394 31.824 25.6644 31.5547 26.6525 31.16C27.6704 30.752 28.537 30.2027 29.3986 29.3147C30.2589 28.4253 30.7923 27.5347 31.1862 26.48C31.5686 25.46 31.8308 24.2987 31.907 22.596C31.9845 20.8893 32 20.3467 32 16C32 11.6533 31.9806 11.1107 31.907 9.404C31.8295 7.70133 31.5686 6.53867 31.1862 5.52C30.791 4.468 30.2589 3.57467 29.3986 2.68533C28.537 1.796 27.6742 1.24667 26.6525 0.84C25.6644 0.444 24.5394 0.174667 22.8899 0.096C21.2365 0.016 20.7109 0 16.5 0ZM16.5 2.88C20.6372 2.88 21.1306 2.90133 22.7646 2.97467C24.2759 3.048 25.096 3.30667 25.6411 3.528C26.367 3.81733 26.8811 4.164 27.4262 4.72267C27.9674 5.28267 28.3033 5.81467 28.5835 6.564C28.7954 7.12667 29.0485 7.97333 29.117 9.53333C29.1906 11.2213 29.2074 11.728 29.2074 16C29.2074 20.272 29.188 20.78 29.1119 22.4667C29.033 24.0267 28.7811 24.8733 28.568 25.436C28.2787 26.1853 27.9494 26.716 27.4069 27.2787C26.8656 27.8373 26.3425 28.184 25.6244 28.4733C25.0819 28.692 24.2487 28.9533 22.7375 29.024C21.0919 29.1 20.6075 29.1173 16.4613 29.1173C12.3137 29.1173 11.8294 29.0973 10.185 29.0187C8.6725 28.9373 7.83938 28.6773 7.29688 28.4573C6.56191 28.1587 6.05688 27.8187 5.51566 27.2587C4.97188 26.7 4.62441 26.16 4.35316 25.4187C4.14004 24.8587 3.88946 23.9987 3.81066 22.4387C3.75254 20.7587 3.73187 20.24 3.73187 15.98C3.73187 11.7187 3.75254 11.1987 3.81066 9.49867C3.88946 7.93867 4.14004 7.08 4.35316 6.52C4.62441 5.76 4.97188 5.24 5.51566 4.67867C6.05688 4.12 6.56191 3.76 7.29688 3.48133C7.83938 3.26 8.65441 3 10.1657 2.92C11.8125 2.86 12.2969 2.84 16.4419 2.84L16.5 2.88ZM16.5 7.784C12.1019 7.784 8.54075 11.464 8.54075 16C8.54075 20.54 12.1058 24.216 16.5 24.216C20.8981 24.216 24.4592 20.536 24.4592 16C24.4592 11.46 20.8942 7.784 16.5 7.784ZM16.5 21.3333C13.6454 21.3333 11.3334 18.9467 11.3334 16C11.3334 13.0533 13.6454 10.6667 16.5 10.6667C19.3546 10.6667 21.6666 13.0533 21.6666 16C21.6666 18.9467 19.3546 21.3333 16.5 21.3333ZM26.6344 7.46C26.6344 8.52 25.8 9.38 24.7744 9.38C23.7475 9.38 22.9144 8.51867 22.9144 7.46C22.9144 6.40133 23.7489 5.54133 24.7744 5.54133C25.7987 5.54 26.6344 6.40133 26.6344 7.46Z" fill="url(#paint0_linear_32_496)"/>
<defs>
<linearGradient id="paint0_linear_32_496" x1="16.5" y1="0" x2="16.5" y2="32" gradientUnits="userSpaceOnUse">
<stop stop-color="#FFBB00"/>
<stop offset="0.0001" stop-color="#FFBF00"/>
<stop offset="1" stop-color="#F2A60C"/>
</linearGradient>
</defs>
</svg>
