<svg width="32" height="32" viewBox="0 0 32 32" fill="none" xmlns="http://www.w3.org/2000/svg">
<path d="M31.3516 8.43597C31.1765 7.77151 30.8311 7.16505 30.35 6.67734C29.869 6.18963 29.2692 5.83777 28.6106 5.65701C26.194 5 16.5 5 16.5 5C16.5 5 6.80604 5 4.38804 5.65701C3.72982 5.8381 3.13034 6.19008 2.64956 6.67775C2.16878 7.16543 1.82356 7.77172 1.64842 8.43597C1 10.8871 1 16 1 16C1 16 1 21.113 1.64842 23.5641C1.82355 24.2286 2.16892 24.835 2.64997 25.3227C3.131 25.8104 3.73081 26.1622 4.38934 26.343C6.80604 27 16.5 27 16.5 27C16.5 27 26.194 27 28.612 26.343C29.2705 26.1624 29.8704 25.8106 30.3515 25.3229C30.8326 24.8351 31.1778 24.2286 31.3529 23.5641C32 21.113 32 16 32 16C32 16 32 10.8871 31.3516 8.43597ZM13.329 20.642V11.3581L21.4316 16L13.329 20.642Z" fill="url(#paint0_linear_32_498)"/>
<defs>
<linearGradient id="paint0_linear_32_498" x1="16.5" y1="5" x2="16.5" y2="27" gradientUnits="userSpaceOnUse">
<stop stop-color="#FFBB00"/>
<stop offset="0.0001" stop-color="#FFBF00"/>
<stop offset="1" stop-color="#F2A60C"/>
</linearGradient>
</defs>
</svg>
