<svg width="32" height="33" viewBox="0 0 32 33" fill="none" xmlns="http://www.w3.org/2000/svg">
<path d="M31.3307 8.7479C31.1499 8.06693 30.7934 7.44541 30.2968 6.94558C29.8003 6.44575 29.1811 6.08515 28.5013 5.8999C26.0067 5.22656 16 5.22656 16 5.22656C16 5.22656 5.99333 5.22656 3.49733 5.8999C2.81788 6.08548 2.19906 6.44621 1.70277 6.946C1.20648 7.4458 0.850122 8.06715 0.669333 8.7479C0 11.2599 0 16.4999 0 16.4999C0 16.4999 0 21.7399 0.669333 24.2519C0.850115 24.9329 1.20663 25.5544 1.70319 26.0542C2.19974 26.554 2.8189 26.9146 3.49867 27.0999C5.99333 27.7732 16 27.7732 16 27.7732C16 27.7732 26.0067 27.7732 28.5027 27.0999C29.1825 26.9148 29.8017 26.5542 30.2983 26.0544C30.7949 25.5545 31.1513 24.9329 31.332 24.2519C32 21.7399 32 16.4999 32 16.4999C32 16.4999 32 11.2599 31.3307 8.7479ZM12.7267 21.2572V11.7426L21.0907 16.4999L12.7267 21.2572Z" fill="white"/>
</svg>
